# xmcd
# 
# Track frame offsets:
#     150
#     9813
#     26408
#     43483
#     61948
#     79313
#     94088
#     111915
#     127207
#     143574
#     157936
#     171583
#     183999
#     202127
#     219629
#     237542
#     253092
#     269833
#     287646
#     304999
#     319916
# 
# Disc length: 4472
# 
# Revision: 14
# Processed by: cddbd v1.5.2PL0 Copyright (c) Steve Scherf et al.
# Submitted via: fre:ac v1.0.17
# 
DISCID=45117615
DTITLE=Various Artist - Bravo Hits 48 - CD2
DYEAR=2005
DGENRE=Pop
TTITLE0=Schnappi - Schnappi - das kleine Krokodil
TTITLE1=Yvonne Catterfeld - Glaub an mich
TTITLE2=Brian McFadden feat. Delta Goodrem - Almost Here
TTITLE3=Söhne Mannheims - Und wenn ein Lied
TTITLE4=Mustafa Sandal feat. Gentleman - Isyankar
TTITLE5=Alexander feat. Sabrina Weckerlin - All (I ever want)
TTITLE6=Max Mutzke - Spür' dein Licht
TTITLE7=Mission Belle - When it all began
TTITLE8=Lukas Hilbert feat. Trina - Kommt meine Liebe nicht bei Dir an
TTITLE9=Die Toten Hosen - Alles wird vorübergehen
TTITLE10=Ana Johnsson - Coz I can
TTITLE11=Good Charlotte - I just wanna live
TTITLE12=Hoobastank - Disappear
TTITLE13=3 Doors Down - Let me go
TTITLE14=Martin Kesici feat. Tara Turunen - Leaving you for me
TTITLE15=Apocalyptica feat. Marta Jandova - Wie weit
TTITLE16=Rammstein - Keine Lust
TTITLE17=Gracia - Run and Hide
TTITLE18=Nu Pagadi - Dying words
TTITLE19=Vanilla Ninja - I know
TTITLE20=Silbermond - Zeit für Optimisten (Live)
EXTD=
EXTT0=Zapp 4 Satania's MP3Crew
EXTT1=Zapp 4 Satania's MP3Crew
EXTT2=Zapp 4 Satania's MP3Crew
EXTT3=Zapp 4 Satania's MP3Crew
EXTT4=Zapp 4 Satania's MP3Crew
EXTT5=Zapp 4 Satania's MP3Crew
EXTT6=Zapp 4 Satania's MP3Crew
EXTT7=Zapp 4 Satania's MP3Crew
EXTT8=Zapp 4 Satania's MP3Crew
EXTT9=Zapp 4 Satania's MP3Crew
EXTT10=Zapp 4 Satania's MP3Crew
EXTT11=Zapp 4 Satania's MP3Crew
EXTT12=Zapp 4 Satania's MP3Crew
EXTT13=Zapp 4 Satania's MP3Crew
EXTT14=Zapp 4 Satania's MP3Crew
EXTT15=Zapp 4 Satania's MP3Crew
EXTT16=Zapp 4 Satania's MP3Crew
EXTT17=Zapp 4 Satania's MP3Crew
EXTT18=Zapp 4 Satania's MP3Crew
EXTT19=Zapp 4 Satania's MP3Crew
EXTT20=Zapp 4 Satania's MP3Crew
PLAYORDER=
